<mxfile host="app.diagrams.net" modified="2024-01-24T20:46:53.743Z" agent="Mozilla/5.0 (Macintosh; Intel Mac OS X 10_15_7) AppleWebKit/537.36 (KHTML, like Gecko) Chrome/120.0.0.0 Safari/537.36" etag="PSiHR_uhRyFQ23tMan0B" version="22.1.18" type="google">
  <diagram name="Page-1" id="0TndVoJYKliNYr8XNkfU">
    <mxGraphModel dx="1567" dy="860" grid="0" gridSize="10" guides="1" tooltips="1" connect="1" arrows="1" fold="1" page="1" pageScale="1" pageWidth="850" pageHeight="1100" math="0" shadow="0">
      <root>
        <mxCell id="0" />
        <mxCell id="1" parent="0" />
        <mxCell id="XoeP2VOuVGM6aKN8_D4t-112" value="" style="rounded=0;whiteSpace=wrap;html=1;opacity=20;" vertex="1" parent="1">
          <mxGeometry x="209" y="628" width="530" height="426" as="geometry" />
        </mxCell>
        <mxCell id="XoeP2VOuVGM6aKN8_D4t-81" style="edgeStyle=orthogonalEdgeStyle;rounded=0;orthogonalLoop=1;jettySize=auto;html=1;entryX=0.31;entryY=-0.008;entryDx=0;entryDy=0;entryPerimeter=0;exitX=0.506;exitY=-0.082;exitDx=0;exitDy=0;exitPerimeter=0;" edge="1" parent="1">
          <mxGeometry relative="1" as="geometry">
            <mxPoint x="439" y="686" as="targetPoint" />
            <mxPoint x="439.60000000000014" y="603.54" as="sourcePoint" />
          </mxGeometry>
        </mxCell>
        <mxCell id="XoeP2VOuVGM6aKN8_D4t-7" style="edgeStyle=orthogonalEdgeStyle;rounded=0;orthogonalLoop=1;jettySize=auto;html=1;entryX=0.338;entryY=0.008;entryDx=0;entryDy=0;entryPerimeter=0;exitX=0.506;exitY=-0.082;exitDx=0;exitDy=0;exitPerimeter=0;" edge="1" parent="1" source="IhvOqUo76paBUTJ3xCxH-38" target="IhvOqUo76paBUTJ3xCxH-1">
          <mxGeometry relative="1" as="geometry" />
        </mxCell>
        <mxCell id="XoeP2VOuVGM6aKN8_D4t-8" style="edgeStyle=orthogonalEdgeStyle;rounded=0;orthogonalLoop=1;jettySize=auto;html=1;exitX=1.004;exitY=0.136;exitDx=0;exitDy=0;entryX=0.957;entryY=1.006;entryDx=0;entryDy=0;entryPerimeter=0;exitPerimeter=0;" edge="1" parent="1" source="IhvOqUo76paBUTJ3xCxH-1" target="IhvOqUo76paBUTJ3xCxH-16">
          <mxGeometry relative="1" as="geometry">
            <Array as="points">
              <mxPoint x="716" y="718" />
              <mxPoint x="716" y="658" />
            </Array>
          </mxGeometry>
        </mxCell>
        <mxCell id="IhvOqUo76paBUTJ3xCxH-1" value="&lt;div style=&quot;text-align: left;&quot;&gt;&lt;span style=&quot;background-color: initial;&quot;&gt;&lt;b&gt;Reg. Bank&lt;/b&gt;&lt;/span&gt;&lt;/div&gt;&lt;div style=&quot;text-align: left;&quot;&gt;&lt;br&gt;&lt;/div&gt;&lt;div style=&quot;text-align: left;&quot;&gt;&lt;span style=&quot;background-color: initial;&quot;&gt;&lt;u&gt;0x00:&amp;nbsp; &amp;nbsp;r0&lt;/u&gt;&lt;/span&gt;&lt;/div&gt;&lt;div style=&quot;text-align: left;&quot;&gt;&lt;span style=&quot;background-color: initial;&quot;&gt;&lt;u&gt;0x04:&amp;nbsp; &amp;nbsp;r1&lt;/u&gt;&lt;/span&gt;&lt;/div&gt;&lt;div style=&quot;text-align: left;&quot;&gt;&lt;span style=&quot;background-color: initial;&quot;&gt;&lt;u&gt;0x08:&amp;nbsp; &amp;nbsp;r2&lt;/u&gt;&lt;/span&gt;&lt;/div&gt;&lt;div style=&quot;text-align: left;&quot;&gt;&lt;span style=&quot;background-color: initial;&quot;&gt;&lt;u&gt;0x0C: ctrl&lt;/u&gt;&lt;/span&gt;&lt;/div&gt;&lt;div style=&quot;text-align: left;&quot;&gt;&lt;span style=&quot;background-color: initial;&quot;&gt;&lt;u&gt;0x10: leds&lt;/u&gt;&lt;/span&gt;&lt;/div&gt;" style="rounded=0;whiteSpace=wrap;html=1;fillColor=#f5f5f5;fontColor=#333333;strokeColor=#666666;" parent="1" vertex="1">
          <mxGeometry x="546" y="686" width="130" height="220" as="geometry" />
        </mxCell>
        <mxCell id="IhvOqUo76paBUTJ3xCxH-5" value="" style="endArrow=none;html=1;rounded=0;fontSize=10;" parent="1" edge="1">
          <mxGeometry width="50" height="50" relative="1" as="geometry">
            <mxPoint x="523" y="733" as="sourcePoint" />
            <mxPoint x="513" y="743" as="targetPoint" />
          </mxGeometry>
        </mxCell>
        <mxCell id="IhvOqUo76paBUTJ3xCxH-6" value="32" style="text;html=1;align=center;verticalAlign=middle;resizable=0;points=[];autosize=1;strokeColor=none;fillColor=none;fontSize=10;" parent="1" vertex="1">
          <mxGeometry x="504" y="714" width="30" height="30" as="geometry" />
        </mxCell>
        <mxCell id="IhvOqUo76paBUTJ3xCxH-7" style="edgeStyle=orthogonalEdgeStyle;rounded=0;orthogonalLoop=1;jettySize=auto;html=1;exitX=-0.007;exitY=0.315;exitDx=0;exitDy=0;startArrow=classic;startFill=1;endArrow=none;endFill=0;entryX=0.456;entryY=0.994;entryDx=0;entryDy=0;entryPerimeter=0;exitPerimeter=0;fontSize=10;" parent="1" edge="1" source="IhvOqUo76paBUTJ3xCxH-1">
          <mxGeometry relative="1" as="geometry">
            <mxPoint x="459.6400000000001" y="627.6999999999999" as="targetPoint" />
            <mxPoint x="569" y="777.9799999999999" as="sourcePoint" />
            <Array as="points">
              <mxPoint x="459" y="757" />
              <mxPoint x="459" y="659" />
              <mxPoint x="460" y="659" />
            </Array>
          </mxGeometry>
        </mxCell>
        <mxCell id="IhvOqUo76paBUTJ3xCxH-9" value="" style="endArrow=none;html=1;rounded=0;fontSize=10;" parent="1" edge="1">
          <mxGeometry width="50" height="50" relative="1" as="geometry">
            <mxPoint x="523" y="753" as="sourcePoint" />
            <mxPoint x="513" y="763" as="targetPoint" />
          </mxGeometry>
        </mxCell>
        <mxCell id="IhvOqUo76paBUTJ3xCxH-10" value="32" style="text;html=1;align=center;verticalAlign=middle;resizable=0;points=[];autosize=1;strokeColor=none;fillColor=none;fontSize=10;" parent="1" vertex="1">
          <mxGeometry x="504" y="734" width="30" height="30" as="geometry" />
        </mxCell>
        <mxCell id="IhvOqUo76paBUTJ3xCxH-11" style="edgeStyle=orthogonalEdgeStyle;rounded=0;orthogonalLoop=1;jettySize=auto;html=1;startArrow=classic;startFill=1;endArrow=none;endFill=0;exitX=0;exitY=0.545;exitDx=0;exitDy=0;exitPerimeter=0;" parent="1" target="IhvOqUo76paBUTJ3xCxH-17" edge="1" source="IhvOqUo76paBUTJ3xCxH-1">
          <mxGeometry relative="1" as="geometry">
            <mxPoint x="439" y="808" as="targetPoint" />
            <mxPoint x="519" y="808" as="sourcePoint" />
            <Array as="points" />
          </mxGeometry>
        </mxCell>
        <mxCell id="IhvOqUo76paBUTJ3xCxH-12" value="i_busr" style="text;html=1;align=center;verticalAlign=middle;resizable=0;points=[];autosize=1;strokeColor=none;fillColor=none;" parent="1" vertex="1">
          <mxGeometry x="491" y="783" width="60" height="30" as="geometry" />
        </mxCell>
        <mxCell id="IhvOqUo76paBUTJ3xCxH-13" value="" style="endArrow=none;html=1;rounded=0;" parent="1" edge="1">
          <mxGeometry width="50" height="50" relative="1" as="geometry">
            <mxPoint x="493" y="803" as="sourcePoint" />
            <mxPoint x="483" y="813" as="targetPoint" />
          </mxGeometry>
        </mxCell>
        <mxCell id="IhvOqUo76paBUTJ3xCxH-14" value="32" style="text;html=1;align=center;verticalAlign=middle;resizable=0;points=[];autosize=1;strokeColor=none;fillColor=none;" parent="1" vertex="1">
          <mxGeometry x="469" y="781" width="40" height="30" as="geometry" />
        </mxCell>
        <mxCell id="IhvOqUo76paBUTJ3xCxH-15" style="edgeStyle=orthogonalEdgeStyle;rounded=0;orthogonalLoop=1;jettySize=auto;html=1;startArrow=classic;startFill=1;endArrow=none;endFill=0;fontSize=10;" parent="1" edge="1" source="IhvOqUo76paBUTJ3xCxH-1">
          <mxGeometry relative="1" as="geometry">
            <mxPoint x="478.01960784313724" y="627.9999999999999" as="targetPoint" />
            <mxPoint x="556.53" y="748.2799999999999" as="sourcePoint" />
            <Array as="points">
              <mxPoint x="479" y="738" />
              <mxPoint x="479" y="628" />
            </Array>
          </mxGeometry>
        </mxCell>
        <mxCell id="IhvOqUo76paBUTJ3xCxH-17" value="&lt;div style=&quot;text-align: left;&quot;&gt;&lt;b&gt;Datapath&lt;/b&gt;&lt;/div&gt;" style="rounded=0;whiteSpace=wrap;html=1;" parent="1" vertex="1">
          <mxGeometry x="339" y="706" width="60" height="200" as="geometry" />
        </mxCell>
        <mxCell id="IhvOqUo76paBUTJ3xCxH-18" value="o_addr_wc" style="text;html=1;align=center;verticalAlign=middle;resizable=0;points=[];autosize=1;strokeColor=none;fillColor=none;rotation=90;fontSize=10;" parent="1" vertex="1">
          <mxGeometry x="418" y="641" width="70" height="30" as="geometry" />
        </mxCell>
        <mxCell id="IhvOqUo76paBUTJ3xCxH-19" value="o_data_wc" style="text;html=1;align=center;verticalAlign=middle;resizable=0;points=[];autosize=1;strokeColor=none;fillColor=none;rotation=90;fontSize=10;" parent="1" vertex="1">
          <mxGeometry x="438" y="641" width="70" height="30" as="geometry" />
        </mxCell>
        <mxCell id="IhvOqUo76paBUTJ3xCxH-23" style="edgeStyle=orthogonalEdgeStyle;rounded=0;orthogonalLoop=1;jettySize=auto;html=1;entryX=0.865;entryY=-0.007;entryDx=0;entryDy=0;entryPerimeter=0;" parent="1" edge="1">
          <mxGeometry relative="1" as="geometry">
            <mxPoint x="624" y="908" as="sourcePoint" />
            <mxPoint x="624.5999999999999" y="997.72" as="targetPoint" />
          </mxGeometry>
        </mxCell>
        <mxCell id="IhvOqUo76paBUTJ3xCxH-24" value="i_start" style="text;html=1;align=center;verticalAlign=middle;resizable=0;points=[];autosize=1;strokeColor=none;fillColor=none;rotation=90;fontSize=10;" parent="1" vertex="1">
          <mxGeometry x="610" y="966" width="50" height="30" as="geometry" />
        </mxCell>
        <mxCell id="IhvOqUo76paBUTJ3xCxH-39" style="edgeStyle=orthogonalEdgeStyle;rounded=0;orthogonalLoop=1;jettySize=auto;html=1;exitX=0.75;exitY=0;exitDx=0;exitDy=0;entryX=0.25;entryY=1;entryDx=0;entryDy=0;" parent="1" edge="1">
          <mxGeometry relative="1" as="geometry">
            <mxPoint x="604" y="998" as="sourcePoint" />
            <mxPoint x="604" y="908" as="targetPoint" />
          </mxGeometry>
        </mxCell>
        <mxCell id="IhvOqUo76paBUTJ3xCxH-20" value="&lt;div style=&quot;text-align: left;&quot;&gt;&lt;b&gt;Control&lt;/b&gt;&lt;/div&gt;" style="rounded=0;whiteSpace=wrap;html=1;" parent="1" vertex="1">
          <mxGeometry x="239" y="998" width="440" height="40" as="geometry" />
        </mxCell>
        <mxCell id="IhvOqUo76paBUTJ3xCxH-28" value="i_is_busy" style="text;html=1;align=center;verticalAlign=middle;resizable=0;points=[];autosize=1;strokeColor=none;fillColor=none;rotation=90;fontSize=10;" parent="1" vertex="1">
          <mxGeometry x="236" y="645" width="70" height="30" as="geometry" />
        </mxCell>
        <mxCell id="IhvOqUo76paBUTJ3xCxH-31" style="edgeStyle=orthogonalEdgeStyle;rounded=0;orthogonalLoop=1;jettySize=auto;html=1;entryX=0.093;entryY=1.021;entryDx=0;entryDy=0;entryPerimeter=0;" parent="1" source="IhvOqUo76paBUTJ3xCxH-20" target="IhvOqUo76paBUTJ3xCxH-16" edge="1">
          <mxGeometry relative="1" as="geometry">
            <Array as="points">
              <mxPoint x="259" y="813" />
              <mxPoint x="258" y="813" />
            </Array>
          </mxGeometry>
        </mxCell>
        <mxCell id="IhvOqUo76paBUTJ3xCxH-32" value="o_busr" style="text;html=1;align=center;verticalAlign=middle;resizable=0;points=[];autosize=1;strokeColor=none;fillColor=none;" parent="1" vertex="1">
          <mxGeometry x="390" y="783" width="60" height="30" as="geometry" />
        </mxCell>
        <mxCell id="IhvOqUo76paBUTJ3xCxH-34" value="i_data_rc" style="text;html=1;align=center;verticalAlign=middle;resizable=0;points=[];autosize=1;strokeColor=none;fillColor=none;rotation=90;fontSize=10;" parent="1" vertex="1">
          <mxGeometry x="676" y="636" width="60" height="30" as="geometry" />
        </mxCell>
        <mxCell id="IhvOqUo76paBUTJ3xCxH-35" style="edgeStyle=orthogonalEdgeStyle;rounded=0;orthogonalLoop=1;jettySize=auto;html=1;entryX=0.294;entryY=0.031;entryDx=0;entryDy=0;entryPerimeter=0;startArrow=classic;startFill=1;endArrow=none;endFill=0;" parent="1" source="IhvOqUo76paBUTJ3xCxH-17" target="IhvOqUo76paBUTJ3xCxH-20" edge="1">
          <mxGeometry relative="1" as="geometry" />
        </mxCell>
        <mxCell id="IhvOqUo76paBUTJ3xCxH-36" value="i_op" style="text;html=1;align=center;verticalAlign=middle;resizable=0;points=[];autosize=1;strokeColor=none;fillColor=none;rotation=90;" parent="1" vertex="1">
          <mxGeometry x="359" y="908" width="50" height="30" as="geometry" />
        </mxCell>
        <mxCell id="IhvOqUo76paBUTJ3xCxH-40" value="i_en_ctrl_write" style="text;html=1;align=center;verticalAlign=middle;resizable=0;points=[];autosize=1;strokeColor=none;fillColor=none;rotation=90;fontSize=10;" parent="1" vertex="1">
          <mxGeometry x="553" y="927" width="90" height="30" as="geometry" />
        </mxCell>
        <mxCell id="IhvOqUo76paBUTJ3xCxH-41" value="o_start" style="text;html=1;align=center;verticalAlign=middle;resizable=0;points=[];autosize=1;strokeColor=none;fillColor=none;rotation=90;fontSize=10;" parent="1" vertex="1">
          <mxGeometry x="609" y="909" width="50" height="30" as="geometry" />
        </mxCell>
        <mxCell id="XoeP2VOuVGM6aKN8_D4t-3" value="" style="endArrow=none;html=1;rounded=0;fontSize=10;" edge="1" parent="1">
          <mxGeometry width="50" height="50" relative="1" as="geometry">
            <mxPoint x="523" y="713" as="sourcePoint" />
            <mxPoint x="513" y="723" as="targetPoint" />
          </mxGeometry>
        </mxCell>
        <mxCell id="XoeP2VOuVGM6aKN8_D4t-4" value="32" style="text;html=1;align=center;verticalAlign=middle;resizable=0;points=[];autosize=1;strokeColor=none;fillColor=none;fontSize=10;" vertex="1" parent="1">
          <mxGeometry x="504" y="694" width="30" height="30" as="geometry" />
        </mxCell>
        <mxCell id="XoeP2VOuVGM6aKN8_D4t-5" style="edgeStyle=orthogonalEdgeStyle;rounded=0;orthogonalLoop=1;jettySize=auto;html=1;exitX=0;exitY=0.25;exitDx=0;exitDy=0;startArrow=classic;startFill=1;endArrow=none;endFill=0;fontSize=10;" edge="1" parent="1">
          <mxGeometry relative="1" as="geometry">
            <mxPoint x="499" y="608" as="targetPoint" />
            <mxPoint x="549" y="718" as="sourcePoint" />
            <Array as="points">
              <mxPoint x="498" y="718" />
            </Array>
          </mxGeometry>
        </mxCell>
        <mxCell id="XoeP2VOuVGM6aKN8_D4t-6" value="o_addr_rc" style="text;html=1;align=center;verticalAlign=middle;resizable=0;points=[];autosize=1;strokeColor=none;fillColor=none;rotation=90;fontSize=10;" vertex="1" parent="1">
          <mxGeometry x="458" y="640" width="70" height="30" as="geometry" />
        </mxCell>
        <mxCell id="IhvOqUo76paBUTJ3xCxH-16" value="&lt;div style=&quot;text-align: left;&quot;&gt;&lt;b&gt;AMBA AXI-4 LITE SLAVE&lt;/b&gt;&lt;/div&gt;" style="rounded=0;whiteSpace=wrap;html=1;fillColor=#f0a30a;fontColor=#000000;strokeColor=#BD7000;" parent="1" vertex="1">
          <mxGeometry x="209" y="578" width="530" height="50" as="geometry" />
        </mxCell>
        <mxCell id="IhvOqUo76paBUTJ3xCxH-38" value="o_en_amba_write" style="text;html=1;align=center;verticalAlign=middle;resizable=0;points=[];autosize=1;strokeColor=none;fillColor=none;rotation=0;fontSize=10;" parent="1" vertex="1">
          <mxGeometry x="539" y="606" width="100" height="30" as="geometry" />
        </mxCell>
        <mxCell id="XoeP2VOuVGM6aKN8_D4t-9" style="edgeStyle=orthogonalEdgeStyle;rounded=0;orthogonalLoop=1;jettySize=auto;html=1;entryX=0.016;entryY=0.283;entryDx=0;entryDy=0;entryPerimeter=0;" edge="1" parent="1">
          <mxGeometry relative="1" as="geometry">
            <mxPoint x="679" y="808" as="sourcePoint" />
            <mxPoint x="710.44" y="807.9799999999999" as="targetPoint" />
          </mxGeometry>
        </mxCell>
        <mxCell id="XoeP2VOuVGM6aKN8_D4t-10" value="o_r0&lt;br&gt;o_r1&lt;br&gt;(to datapath)&lt;br&gt;&lt;br&gt;ctrl[0] = o_start&lt;br&gt;ctrl[1] = o_op&lt;br&gt;ctrl[31] = i_is_done&lt;br&gt;&lt;br&gt;o_leds[3:0]&lt;br&gt;(to leads)" style="text;html=1;align=left;verticalAlign=middle;resizable=0;points=[];autosize=1;strokeColor=none;fillColor=none;fontStyle=0" vertex="1" parent="1">
          <mxGeometry x="712" y="727" width="120" height="160" as="geometry" />
        </mxCell>
        <mxCell id="IhvOqUo76paBUTJ3xCxH-30" value="i_r0&lt;br&gt;i_r1&lt;br&gt;(from rb)" style="text;html=1;align=left;verticalAlign=middle;resizable=0;points=[];autosize=1;strokeColor=none;fillColor=none;" parent="1" vertex="1">
          <mxGeometry x="279" y="778" width="70" height="60" as="geometry" />
        </mxCell>
        <mxCell id="XoeP2VOuVGM6aKN8_D4t-14" style="edgeStyle=orthogonalEdgeStyle;rounded=0;orthogonalLoop=1;jettySize=auto;html=1;entryX=0.016;entryY=0.283;entryDx=0;entryDy=0;entryPerimeter=0;" edge="1" parent="1">
          <mxGeometry relative="1" as="geometry">
            <mxPoint x="307" y="808" as="sourcePoint" />
            <mxPoint x="338.44000000000005" y="807.9799999999999" as="targetPoint" />
          </mxGeometry>
        </mxCell>
        <mxCell id="XoeP2VOuVGM6aKN8_D4t-16" value="" style="endArrow=none;html=1;rounded=0;fontSize=10;" edge="1" parent="1">
          <mxGeometry width="50" height="50" relative="1" as="geometry">
            <mxPoint x="693" y="713" as="sourcePoint" />
            <mxPoint x="683" y="723" as="targetPoint" />
          </mxGeometry>
        </mxCell>
        <mxCell id="XoeP2VOuVGM6aKN8_D4t-17" value="32" style="text;html=1;align=center;verticalAlign=middle;resizable=0;points=[];autosize=1;strokeColor=none;fillColor=none;fontSize=10;" vertex="1" parent="1">
          <mxGeometry x="674" y="694" width="30" height="30" as="geometry" />
        </mxCell>
        <mxCell id="XoeP2VOuVGM6aKN8_D4t-20" value="&lt;div style=&quot;border-color: var(--border-color); color: rgb(0, 0, 0); font-family: Helvetica; font-style: normal; font-variant-ligatures: normal; font-variant-caps: normal; font-weight: 400; letter-spacing: normal; orphans: 2; text-indent: 0px; text-transform: none; widows: 2; word-spacing: 0px; -webkit-text-stroke-width: 0px; background-color: rgb(251, 251, 251); text-decoration-thickness: initial; text-decoration-style: initial; text-decoration-color: initial; text-align: left; font-size: 8px;&quot;&gt;&lt;font style=&quot;border-color: var(--border-color); font-size: 8px;&quot;&gt;if(i_op)&lt;/font&gt;&lt;/div&gt;&lt;div style=&quot;border-color: var(--border-color); color: rgb(0, 0, 0); font-family: Helvetica; font-style: normal; font-variant-ligatures: normal; font-variant-caps: normal; font-weight: 400; letter-spacing: normal; orphans: 2; text-indent: 0px; text-transform: none; widows: 2; word-spacing: 0px; -webkit-text-stroke-width: 0px; background-color: rgb(251, 251, 251); text-decoration-thickness: initial; text-decoration-style: initial; text-decoration-color: initial; text-align: left; font-size: 8px;&quot;&gt;&lt;font style=&quot;border-color: var(--border-color); font-size: 8px;&quot;&gt;&amp;nbsp; r = r0+r1&amp;nbsp; &amp;nbsp;&lt;/font&gt;&lt;/div&gt;&lt;div style=&quot;border-color: var(--border-color); color: rgb(0, 0, 0); font-family: Helvetica; font-style: normal; font-variant-ligatures: normal; font-variant-caps: normal; font-weight: 400; letter-spacing: normal; orphans: 2; text-indent: 0px; text-transform: none; widows: 2; word-spacing: 0px; -webkit-text-stroke-width: 0px; background-color: rgb(251, 251, 251); text-decoration-thickness: initial; text-decoration-style: initial; text-decoration-color: initial; text-align: left; font-size: 8px;&quot;&gt;&lt;font style=&quot;border-color: var(--border-color); font-size: 8px;&quot;&gt;else&lt;/font&gt;&lt;/div&gt;&lt;div style=&quot;border-color: var(--border-color); color: rgb(0, 0, 0); font-family: Helvetica; font-style: normal; font-variant-ligatures: normal; font-variant-caps: normal; font-weight: 400; letter-spacing: normal; orphans: 2; text-indent: 0px; text-transform: none; widows: 2; word-spacing: 0px; -webkit-text-stroke-width: 0px; background-color: rgb(251, 251, 251); text-decoration-thickness: initial; text-decoration-style: initial; text-decoration-color: initial; text-align: left; font-size: 8px;&quot;&gt;&lt;font style=&quot;border-color: var(--border-color); font-size: 8px;&quot;&gt;&amp;nbsp; r = r0-r1&lt;/font&gt;&lt;/div&gt;" style="text;whiteSpace=wrap;html=1;fontSize=8;labelBorderColor=default;textOpacity=50;" vertex="1" parent="1">
          <mxGeometry x="345" y="815" width="53" height="54" as="geometry" />
        </mxCell>
        <mxCell id="XoeP2VOuVGM6aKN8_D4t-21" value="aw" style="rounded=0;whiteSpace=wrap;html=1;fontSize=9;verticalAlign=middle;" vertex="1" parent="1">
          <mxGeometry x="279" y="568" width="40" height="10" as="geometry" />
        </mxCell>
        <mxCell id="XoeP2VOuVGM6aKN8_D4t-24" value="b" style="rounded=0;whiteSpace=wrap;html=1;fontSize=9;" vertex="1" parent="1">
          <mxGeometry x="459" y="568" width="40" height="10" as="geometry" />
        </mxCell>
        <mxCell id="XoeP2VOuVGM6aKN8_D4t-25" value="ar" style="rounded=0;whiteSpace=wrap;html=1;fontSize=9;" vertex="1" parent="1">
          <mxGeometry x="549" y="568" width="40" height="10" as="geometry" />
        </mxCell>
        <mxCell id="XoeP2VOuVGM6aKN8_D4t-26" value="r" style="rounded=0;whiteSpace=wrap;html=1;fontSize=9;" vertex="1" parent="1">
          <mxGeometry x="639" y="568" width="40" height="10" as="geometry" />
        </mxCell>
        <mxCell id="XoeP2VOuVGM6aKN8_D4t-38" value="w" style="rounded=0;whiteSpace=wrap;html=1;fontSize=9;verticalAlign=middle;" vertex="1" parent="1">
          <mxGeometry x="369" y="568" width="40" height="10" as="geometry" />
        </mxCell>
        <mxCell id="XoeP2VOuVGM6aKN8_D4t-39" value="" style="endArrow=none;html=1;rounded=0;startArrow=classic;startFill=1;endFill=0;" edge="1" parent="1">
          <mxGeometry width="50" height="50" relative="1" as="geometry">
            <mxPoint x="283" y="568" as="sourcePoint" />
            <mxPoint x="283" y="538" as="targetPoint" />
          </mxGeometry>
        </mxCell>
        <mxCell id="XoeP2VOuVGM6aKN8_D4t-40" value="" style="endArrow=classic;html=1;rounded=0;" edge="1" parent="1">
          <mxGeometry width="50" height="50" relative="1" as="geometry">
            <mxPoint x="294" y="568" as="sourcePoint" />
            <mxPoint x="294" y="538" as="targetPoint" />
          </mxGeometry>
        </mxCell>
        <mxCell id="XoeP2VOuVGM6aKN8_D4t-41" value="" style="endArrow=none;html=1;rounded=0;startArrow=classic;startFill=1;endFill=0;" edge="1" parent="1">
          <mxGeometry width="50" height="50" relative="1" as="geometry">
            <mxPoint x="305" y="568" as="sourcePoint" />
            <mxPoint x="305" y="538" as="targetPoint" />
          </mxGeometry>
        </mxCell>
        <mxCell id="XoeP2VOuVGM6aKN8_D4t-42" value="" style="endArrow=none;html=1;rounded=0;startArrow=classic;startFill=1;endFill=0;" edge="1" parent="1">
          <mxGeometry width="50" height="50" relative="1" as="geometry">
            <mxPoint x="316" y="568" as="sourcePoint" />
            <mxPoint x="316" y="538" as="targetPoint" />
          </mxGeometry>
        </mxCell>
        <mxCell id="XoeP2VOuVGM6aKN8_D4t-43" value="AWVALID" style="text;html=1;align=center;verticalAlign=middle;resizable=0;points=[];autosize=1;strokeColor=none;fillColor=none;fontSize=6;rotation=-90;" vertex="1" parent="1">
          <mxGeometry x="257" y="513" width="50" height="20" as="geometry" />
        </mxCell>
        <mxCell id="XoeP2VOuVGM6aKN8_D4t-44" value="AWREADY" style="text;html=1;align=center;verticalAlign=middle;resizable=0;points=[];autosize=1;strokeColor=none;fillColor=none;fontSize=6;rotation=-90;" vertex="1" parent="1">
          <mxGeometry x="268" y="511" width="50" height="20" as="geometry" />
        </mxCell>
        <mxCell id="XoeP2VOuVGM6aKN8_D4t-45" value="AWADDR" style="text;html=1;align=center;verticalAlign=middle;resizable=0;points=[];autosize=1;strokeColor=none;fillColor=none;fontSize=6;rotation=-90;" vertex="1" parent="1">
          <mxGeometry x="279" y="513" width="50" height="20" as="geometry" />
        </mxCell>
        <mxCell id="XoeP2VOuVGM6aKN8_D4t-46" value="AWPROT" style="text;html=1;align=center;verticalAlign=middle;resizable=0;points=[];autosize=1;strokeColor=none;fillColor=none;fontSize=6;rotation=-90;" vertex="1" parent="1">
          <mxGeometry x="289" y="513" width="50" height="20" as="geometry" />
        </mxCell>
        <mxCell id="XoeP2VOuVGM6aKN8_D4t-47" value="" style="endArrow=none;html=1;rounded=0;startArrow=classic;startFill=1;endFill=0;" edge="1" parent="1">
          <mxGeometry width="50" height="50" relative="1" as="geometry">
            <mxPoint x="373" y="568" as="sourcePoint" />
            <mxPoint x="373" y="538" as="targetPoint" />
          </mxGeometry>
        </mxCell>
        <mxCell id="XoeP2VOuVGM6aKN8_D4t-48" value="" style="endArrow=classic;html=1;rounded=0;" edge="1" parent="1">
          <mxGeometry width="50" height="50" relative="1" as="geometry">
            <mxPoint x="384" y="568" as="sourcePoint" />
            <mxPoint x="384" y="538" as="targetPoint" />
          </mxGeometry>
        </mxCell>
        <mxCell id="XoeP2VOuVGM6aKN8_D4t-49" value="" style="endArrow=none;html=1;rounded=0;startArrow=classic;startFill=1;endFill=0;" edge="1" parent="1">
          <mxGeometry width="50" height="50" relative="1" as="geometry">
            <mxPoint x="395" y="568" as="sourcePoint" />
            <mxPoint x="395" y="538" as="targetPoint" />
          </mxGeometry>
        </mxCell>
        <mxCell id="XoeP2VOuVGM6aKN8_D4t-50" value="" style="endArrow=none;html=1;rounded=0;startArrow=classic;startFill=1;endFill=0;" edge="1" parent="1">
          <mxGeometry width="50" height="50" relative="1" as="geometry">
            <mxPoint x="406" y="568" as="sourcePoint" />
            <mxPoint x="406" y="538" as="targetPoint" />
          </mxGeometry>
        </mxCell>
        <mxCell id="XoeP2VOuVGM6aKN8_D4t-51" value="WVALID" style="text;html=1;align=center;verticalAlign=middle;resizable=0;points=[];autosize=1;strokeColor=none;fillColor=none;fontSize=6;rotation=-90;" vertex="1" parent="1">
          <mxGeometry x="347" y="513" width="50" height="20" as="geometry" />
        </mxCell>
        <mxCell id="XoeP2VOuVGM6aKN8_D4t-52" value="WREADY" style="text;html=1;align=center;verticalAlign=middle;resizable=0;points=[];autosize=1;strokeColor=none;fillColor=none;fontSize=6;rotation=-90;" vertex="1" parent="1">
          <mxGeometry x="358" y="511" width="50" height="20" as="geometry" />
        </mxCell>
        <mxCell id="XoeP2VOuVGM6aKN8_D4t-53" value="WADDR" style="text;html=1;align=center;verticalAlign=middle;resizable=0;points=[];autosize=1;strokeColor=none;fillColor=none;fontSize=6;rotation=-90;" vertex="1" parent="1">
          <mxGeometry x="369" y="513" width="50" height="20" as="geometry" />
        </mxCell>
        <mxCell id="XoeP2VOuVGM6aKN8_D4t-54" value="WPROT" style="text;html=1;align=center;verticalAlign=middle;resizable=0;points=[];autosize=1;strokeColor=none;fillColor=none;fontSize=6;rotation=-90;" vertex="1" parent="1">
          <mxGeometry x="379" y="513" width="50" height="20" as="geometry" />
        </mxCell>
        <mxCell id="XoeP2VOuVGM6aKN8_D4t-56" value="" style="endArrow=classic;html=1;rounded=0;" edge="1" parent="1">
          <mxGeometry width="50" height="50" relative="1" as="geometry">
            <mxPoint x="467" y="568" as="sourcePoint" />
            <mxPoint x="467" y="538" as="targetPoint" />
          </mxGeometry>
        </mxCell>
        <mxCell id="XoeP2VOuVGM6aKN8_D4t-57" value="" style="endArrow=none;html=1;rounded=0;startArrow=classic;startFill=1;endFill=0;" edge="1" parent="1">
          <mxGeometry width="50" height="50" relative="1" as="geometry">
            <mxPoint x="478" y="568" as="sourcePoint" />
            <mxPoint x="478" y="538" as="targetPoint" />
          </mxGeometry>
        </mxCell>
        <mxCell id="XoeP2VOuVGM6aKN8_D4t-60" value="BVALID" style="text;html=1;align=center;verticalAlign=middle;resizable=0;points=[];autosize=1;strokeColor=none;fillColor=none;fontSize=6;rotation=-90;" vertex="1" parent="1">
          <mxGeometry x="446" y="511" width="40" height="20" as="geometry" />
        </mxCell>
        <mxCell id="XoeP2VOuVGM6aKN8_D4t-61" value="BREADY" style="text;html=1;align=center;verticalAlign=middle;resizable=0;points=[];autosize=1;strokeColor=none;fillColor=none;fontSize=6;rotation=-90;" vertex="1" parent="1">
          <mxGeometry x="452" y="513" width="50" height="20" as="geometry" />
        </mxCell>
        <mxCell id="XoeP2VOuVGM6aKN8_D4t-63" value="" style="endArrow=classic;html=1;rounded=0;" edge="1" parent="1">
          <mxGeometry width="50" height="50" relative="1" as="geometry">
            <mxPoint x="491" y="568" as="sourcePoint" />
            <mxPoint x="491" y="538" as="targetPoint" />
          </mxGeometry>
        </mxCell>
        <mxCell id="XoeP2VOuVGM6aKN8_D4t-64" value="BRESP" style="text;html=1;align=center;verticalAlign=middle;resizable=0;points=[];autosize=1;strokeColor=none;fillColor=none;fontSize=6;rotation=-90;" vertex="1" parent="1">
          <mxGeometry x="470" y="511" width="40" height="20" as="geometry" />
        </mxCell>
        <mxCell id="XoeP2VOuVGM6aKN8_D4t-65" value="" style="endArrow=none;html=1;rounded=0;startArrow=classic;startFill=1;endFill=0;" edge="1" parent="1">
          <mxGeometry width="50" height="50" relative="1" as="geometry">
            <mxPoint x="553" y="568" as="sourcePoint" />
            <mxPoint x="553" y="538" as="targetPoint" />
          </mxGeometry>
        </mxCell>
        <mxCell id="XoeP2VOuVGM6aKN8_D4t-66" value="" style="endArrow=classic;html=1;rounded=0;" edge="1" parent="1">
          <mxGeometry width="50" height="50" relative="1" as="geometry">
            <mxPoint x="564" y="568" as="sourcePoint" />
            <mxPoint x="564" y="538" as="targetPoint" />
          </mxGeometry>
        </mxCell>
        <mxCell id="XoeP2VOuVGM6aKN8_D4t-67" value="" style="endArrow=none;html=1;rounded=0;startArrow=classic;startFill=1;endFill=0;" edge="1" parent="1">
          <mxGeometry width="50" height="50" relative="1" as="geometry">
            <mxPoint x="575" y="568" as="sourcePoint" />
            <mxPoint x="575" y="538" as="targetPoint" />
          </mxGeometry>
        </mxCell>
        <mxCell id="XoeP2VOuVGM6aKN8_D4t-68" value="" style="endArrow=none;html=1;rounded=0;startArrow=classic;startFill=1;endFill=0;" edge="1" parent="1">
          <mxGeometry width="50" height="50" relative="1" as="geometry">
            <mxPoint x="586" y="568" as="sourcePoint" />
            <mxPoint x="586" y="538" as="targetPoint" />
          </mxGeometry>
        </mxCell>
        <mxCell id="XoeP2VOuVGM6aKN8_D4t-69" value="ARVALID" style="text;html=1;align=center;verticalAlign=middle;resizable=0;points=[];autosize=1;strokeColor=none;fillColor=none;fontSize=6;rotation=-90;" vertex="1" parent="1">
          <mxGeometry x="527" y="513" width="50" height="20" as="geometry" />
        </mxCell>
        <mxCell id="XoeP2VOuVGM6aKN8_D4t-70" value="ARREADY" style="text;html=1;align=center;verticalAlign=middle;resizable=0;points=[];autosize=1;strokeColor=none;fillColor=none;fontSize=6;rotation=-90;" vertex="1" parent="1">
          <mxGeometry x="538" y="511" width="50" height="20" as="geometry" />
        </mxCell>
        <mxCell id="XoeP2VOuVGM6aKN8_D4t-71" value="ARADDR" style="text;html=1;align=center;verticalAlign=middle;resizable=0;points=[];autosize=1;strokeColor=none;fillColor=none;fontSize=6;rotation=-90;" vertex="1" parent="1">
          <mxGeometry x="549" y="513" width="50" height="20" as="geometry" />
        </mxCell>
        <mxCell id="XoeP2VOuVGM6aKN8_D4t-72" value="ARPROT" style="text;html=1;align=center;verticalAlign=middle;resizable=0;points=[];autosize=1;strokeColor=none;fillColor=none;fontSize=6;rotation=-90;" vertex="1" parent="1">
          <mxGeometry x="559" y="513" width="50" height="20" as="geometry" />
        </mxCell>
        <mxCell id="XoeP2VOuVGM6aKN8_D4t-73" value="" style="endArrow=none;html=1;rounded=0;startArrow=classic;startFill=1;endFill=0;" edge="1" parent="1">
          <mxGeometry width="50" height="50" relative="1" as="geometry">
            <mxPoint x="643" y="538" as="sourcePoint" />
            <mxPoint x="643" y="568" as="targetPoint" />
          </mxGeometry>
        </mxCell>
        <mxCell id="XoeP2VOuVGM6aKN8_D4t-74" value="" style="endArrow=classic;html=1;rounded=0;" edge="1" parent="1">
          <mxGeometry width="50" height="50" relative="1" as="geometry">
            <mxPoint x="654" y="538" as="sourcePoint" />
            <mxPoint x="654" y="568" as="targetPoint" />
          </mxGeometry>
        </mxCell>
        <mxCell id="XoeP2VOuVGM6aKN8_D4t-75" value="" style="endArrow=none;html=1;rounded=0;startArrow=classic;startFill=1;endFill=0;" edge="1" parent="1">
          <mxGeometry width="50" height="50" relative="1" as="geometry">
            <mxPoint x="665" y="538" as="sourcePoint" />
            <mxPoint x="665" y="568" as="targetPoint" />
          </mxGeometry>
        </mxCell>
        <mxCell id="XoeP2VOuVGM6aKN8_D4t-76" value="" style="endArrow=none;html=1;rounded=0;startArrow=classic;startFill=1;endFill=0;" edge="1" parent="1">
          <mxGeometry width="50" height="50" relative="1" as="geometry">
            <mxPoint x="676" y="538" as="sourcePoint" />
            <mxPoint x="676" y="568" as="targetPoint" />
          </mxGeometry>
        </mxCell>
        <mxCell id="XoeP2VOuVGM6aKN8_D4t-77" value="RVALID" style="text;html=1;align=center;verticalAlign=middle;resizable=0;points=[];autosize=1;strokeColor=none;fillColor=none;fontSize=6;rotation=-90;" vertex="1" parent="1">
          <mxGeometry x="622" y="513" width="40" height="20" as="geometry" />
        </mxCell>
        <mxCell id="XoeP2VOuVGM6aKN8_D4t-78" value="RREADY" style="text;html=1;align=center;verticalAlign=middle;resizable=0;points=[];autosize=1;strokeColor=none;fillColor=none;fontSize=6;rotation=-90;" vertex="1" parent="1">
          <mxGeometry x="628" y="511" width="50" height="20" as="geometry" />
        </mxCell>
        <mxCell id="XoeP2VOuVGM6aKN8_D4t-79" value="RDATA" style="text;html=1;align=center;verticalAlign=middle;resizable=0;points=[];autosize=1;strokeColor=none;fillColor=none;fontSize=6;rotation=-90;" vertex="1" parent="1">
          <mxGeometry x="644" y="513" width="40" height="20" as="geometry" />
        </mxCell>
        <mxCell id="XoeP2VOuVGM6aKN8_D4t-80" value="RRESP" style="text;html=1;align=center;verticalAlign=middle;resizable=0;points=[];autosize=1;strokeColor=none;fillColor=none;fontSize=6;rotation=-90;" vertex="1" parent="1">
          <mxGeometry x="654" y="513" width="40" height="20" as="geometry" />
        </mxCell>
        <mxCell id="XoeP2VOuVGM6aKN8_D4t-83" value="o_strb" style="text;html=1;align=center;verticalAlign=middle;resizable=0;points=[];autosize=1;strokeColor=none;fillColor=none;rotation=90;fontSize=10;" vertex="1" parent="1">
          <mxGeometry x="408" y="631" width="50" height="30" as="geometry" />
        </mxCell>
        <mxCell id="XoeP2VOuVGM6aKN8_D4t-84" style="edgeStyle=orthogonalEdgeStyle;rounded=0;orthogonalLoop=1;jettySize=auto;html=1;entryX=0.865;entryY=-0.007;entryDx=0;entryDy=0;entryPerimeter=0;" edge="1" parent="1">
          <mxGeometry relative="1" as="geometry">
            <mxPoint x="653" y="908" as="sourcePoint" />
            <mxPoint x="654" y="998" as="targetPoint" />
          </mxGeometry>
        </mxCell>
        <mxCell id="XoeP2VOuVGM6aKN8_D4t-85" value="o_op" style="text;html=1;align=center;verticalAlign=middle;resizable=0;points=[];autosize=1;strokeColor=none;fillColor=none;rotation=90;fontSize=10;" vertex="1" parent="1">
          <mxGeometry x="639" y="909" width="50" height="30" as="geometry" />
        </mxCell>
        <mxCell id="XoeP2VOuVGM6aKN8_D4t-86" value="o_op" style="text;html=1;align=center;verticalAlign=middle;resizable=0;points=[];autosize=1;strokeColor=none;fillColor=none;rotation=90;" vertex="1" parent="1">
          <mxGeometry x="359" y="964" width="50" height="30" as="geometry" />
        </mxCell>
        <mxCell id="XoeP2VOuVGM6aKN8_D4t-87" value="high-level usage:&lt;br&gt;&lt;br&gt;- write r0, r1, ctrl&lt;br&gt;- read ctrl, wait ctrl[31]&amp;nbsp; == 1&lt;br&gt;- read r2 (result)" style="rounded=1;whiteSpace=wrap;html=1;align=left;" vertex="1" parent="1">
          <mxGeometry x="24" y="745.5" width="169" height="111" as="geometry" />
        </mxCell>
        <mxCell id="XoeP2VOuVGM6aKN8_D4t-108" style="edgeStyle=orthogonalEdgeStyle;rounded=0;orthogonalLoop=1;jettySize=auto;html=1;exitX=0.75;exitY=0;exitDx=0;exitDy=0;entryX=0.25;entryY=1;entryDx=0;entryDy=0;" edge="1" parent="1">
          <mxGeometry relative="1" as="geometry">
            <mxPoint x="574" y="998" as="sourcePoint" />
            <mxPoint x="574" y="908" as="targetPoint" />
          </mxGeometry>
        </mxCell>
        <mxCell id="XoeP2VOuVGM6aKN8_D4t-109" value="i_is_done" style="text;html=1;align=center;verticalAlign=middle;resizable=0;points=[];autosize=1;strokeColor=none;fillColor=none;rotation=90;fontSize=10;" vertex="1" parent="1">
          <mxGeometry x="533" y="927" width="70" height="30" as="geometry" />
        </mxCell>
      </root>
    </mxGraphModel>
  </diagram>
</mxfile>
